<?xml version="1.0" encoding="utf-8"?>
<!-- Generator: Adobe Illustrator 24.0.0, SVG Export Plug-In . SVG Version: 6.00 Build 0)  -->
<svg version="1.1" id="Capa_1" xmlns="http://www.w3.org/2000/svg" xmlns:xlink="http://www.w3.org/1999/xlink" x="0px" y="0px"
	 viewBox="0 0 512 512" style="enable-background:new 0 0 512 512;" xml:space="preserve">
<style type="text/css">
	.st0{fill:#19282F;}
	.st1{fill:#293B44;}
</style>
<g>
	<path class="st0" d="M22.6,254.5c12-44.8,40.1-82.4,78-106.1C60.8,139.2,31,103.6,31,61c0-0.1,0-0.1,0-0.2
		C11.9,86.4,0,117.4,0,149.6c0,19.2,2.3,24.4,18.3,87.9L22.6,254.5z"/>
	<path class="st0" d="M248.2,160.9c-16.3-6.1-33.8-9.9-52.2-9.9c-83,0-150,67.2-150,150c0,82.9,67.2,211,150,211
		c21.4,0,41.8-8.6,60.2-22.7C209.8,438.8,181,360.6,181,301C181,244.4,207.3,193.9,248.2,160.9z"/>
	<path class="st0" d="M121,121h75c29.7,0,57.6,7.5,82.3,20.3c24.8-12.9,52.9-20.3,82.7-20.3c9.3,0,18.4,0.9,27.4,2.3
		C375.9,53.9,315.4,0,242.5,0H121C88.2,0,61,27.8,61,61C61,94,88,121,121,121L121,121z"/>
	<path class="st1" d="M335.4,421c6.6,7,16.4,15,25.6,15c9.3,0,19.1-8.1,25.6-15c-6.6-7-16.4-15-25.6-15
		C351.7,406,341.9,414.1,335.4,421z"/>
	<path class="st1" d="M260.4,301c6.6,7,16.4,15,25.6,15c9.3,0,19.1-8.1,25.6-15c-6.6-7-16.4-15-25.6-15
		C276.7,286,266.9,294.1,260.4,301z"/>
	<path class="st1" d="M361,151c-83,0-150,67.2-150,150c0,82.9,67.2,211,150,211s151-128.1,151-211C512,218.3,443.7,151,361,151z
		 M286,346c-31.9,0-54.9-32.9-57.5-36.6c-3.4-5.1-3.4-11.7,0-16.7c2.5-3.7,25.5-36.6,57.5-36.6s54.9,32.9,57.5,36.6
		c3.4,5.1,3.4,11.7,0,16.7C340.9,313.1,317.9,346,286,346z M418.5,429.4c-2.5,3.8-25.5,36.6-57.5,36.6s-54.9-32.9-57.5-36.6
		c-3.4-5.1-3.4-11.7,0-16.7c2.5-3.7,25.5-36.6,57.5-36.6s54.9,32.9,57.5,36.6C421.8,417.7,421.8,424.3,418.5,429.4L418.5,429.4z
		 M493.5,292.6c3.4,5.1,3.4,11.7,0,16.7c-2.5,3.7-25.5,36.6-57.5,36.6s-54.9-32.9-57.5-36.6c-3.4-5.1-3.4-11.7,0-16.7
		c2.5-3.7,25.5-36.6,57.5-36.6S490.9,288.9,493.5,292.6L493.5,292.6z"/>
	<path class="st1" d="M410.4,301c6.6,7,16.4,15,25.6,15c9.3,0,19.1-8.1,25.6-15c-6.6-7-16.4-15-25.6-15
		C426.7,286,416.9,294.1,410.4,301z"/>
</g>
</svg>
