<?xml version="1.0" encoding="utf-8"?>
<!-- Generator: Adobe Illustrator 24.0.0, SVG Export Plug-In . SVG Version: 6.00 Build 0)  -->
<svg version="1.1" id="Capa_1" xmlns="http://www.w3.org/2000/svg" xmlns:xlink="http://www.w3.org/1999/xlink" x="0px" y="0px"
	 viewBox="0 0 512 512" style="enable-background:new 0 0 512 512;" xml:space="preserve">
<style type="text/css">
	.st0{fill:#19282F;}
	.st1{fill:#293B44;}
</style>
<g>
	<path class="st0" d="M111.1,60c8.3,0,15-6.7,15-15c0-8.3,6.7-15,15-15h45v30h-15c-8.3,0-15,6.7-15,15v15h90V75c0-8.3-6.7-15-15-15
		h-15V30h75c8.3,0,15-6.7,15-15s-6.7-15-15-15h-150c-24.8,0-45,20.2-45,45C96.1,53.3,102.8,60,111.1,60L111.1,60z"/>
	<path class="st1" d="M96.1,272h60v90h-60V272z"/>
	<path class="st0" d="M111.1,512h176.8c-0.6-1.1-1.3-2-2-3.1c-0.7,0-1.4,0-2.2,0c-31.4,0-45.8-16.9-51.6-26.9
		c-6.6-11.4-13.2-32.6,3.6-60c-16.8-27.4-10.2-48.6-3.6-60c5.8-10,20.2-26.9,51.6-26.9c0.7,0,1.4,0,2.2,0
		c6-11.1,13.1-18.5,20.2-23.5V165c0-24.8-20.2-45-45-45h-120c-24.8,0-45,20.2-45,45v77h75c8.3,0,15,6.7,15,15v120
		c0,8.3-6.7,15-15,15h-75v105C96.1,505.3,102.8,512,111.1,512L111.1,512z"/>
	<path class="st1" d="M258.1,377c-7.4,12.7-0.1,28.8,15.8,45c-15.9,16.2-23.1,32.3-15.8,45c7.4,12.7,24.9,14.5,46.8,8.9
		c6.1,21.8,16.4,36.1,31.1,36.1s25-14.3,31.1-36.1c21.9,5.7,38.5,3.9,45.8-8.9c7.4-12.7,0.1-28.8-15.8-45
		c15.9-16.2,23.1-32.3,15.8-45c-7.4-12.7-23.9-14.5-45.8-8.9c-6.1-21.8-16.4-36.1-31.1-36.1s-25,14.3-31.1,36.1
		C283.1,362.5,265.5,364.3,258.1,377z M336.1,407c8.3,0,15,6.7,15,15s-6.7,15-15,15s-15-6.7-15-15S327.8,407,336.1,407z"/>
</g>
</svg>
