<?xml version="1.0" encoding="utf-8"?>
<!-- Generator: Adobe Illustrator 24.0.0, SVG Export Plug-In . SVG Version: 6.00 Build 0)  -->
<svg version="1.1" id="Capa_1" xmlns="http://www.w3.org/2000/svg" xmlns:xlink="http://www.w3.org/1999/xlink" x="0px" y="0px"
	 viewBox="0 0 512 512" style="enable-background:new 0 0 512 512;" xml:space="preserve">
<style type="text/css">
	.st0{fill:#19282F;}
	.st1{fill:#293B44;}
</style>
<g>
	<path class="st0" d="M482,136V76c0-8.3-6.7-15-15-15H347c-8.3,0-15,6.7-15,15v15H178.2C172,73.6,155.5,61,136,61H76
		c-8.3,0-15-6.7-15-15c0-8.3-6.7-15-15-15s-15,6.7-15,15v30c0,41.4,33.6,75,75,75h30c19.5,0,36-12.6,42.2-30H332v15
		c0,8.3,6.7,15,15,15h120C475.3,151,482,144.3,482,136z"/>
	<path class="st0" d="M323.7,212.6c-20.9-10.4-44.8-15.7-67.7-15.7s-46.8,5.2-67.7,15.7c-5.1,2.5-8.3,7.7-8.3,13.4v180
		c0,41.4,34.6,75,76,75s76-33.6,76-75V226C332,220.3,328.8,215.1,323.7,212.6L323.7,212.6z"/>
	<path class="st1" d="M503.7,212.6c-20.9-10.4-43.8-15.7-66.7-15.7s-45.8,5.2-66.7,15.7c-5.1,2.5-8.3,7.7-8.3,13.4v45h45
		c8.3,0,15,6.7,15,15s-6.7,15-15,15h-45v60h45c8.3,0,15,6.7,15,15s-6.7,15-15,15h-45v15c0,41.4,33.6,75,75,75
		c36.2,0,66.5-25.8,73.5-60H467c-8.3,0-15-6.7-15-15s6.7-15,15-15h45v-60h-45c-8.3,0-15-6.7-15-15s6.7-15,15-15h45v-75
		C512,220.3,508.8,215.1,503.7,212.6L503.7,212.6z"/>
	<path class="st0" d="M0,359.2l150-75v-41.5l-150,75V359.2z"/>
	<path class="st1" d="M0,406c0,9.1,1.9,17.7,4.9,25.8L150,359.2v-41.5l-150,75V406z"/>
	<path class="st1" d="M141.7,212.6c-20.9-10.4-43.8-15.7-66.7-15.7s-45.8,5.2-66.7,15.7C3.2,215.1,0,220.3,0,226v58.2l142.3-71.1
		C142,213,141.9,212.7,141.7,212.6L141.7,212.6z"/>
	<path class="st0" d="M75,481c41.4,0,75-33.6,75-75v-13.2L20.7,457.4C34.4,471.9,53.6,481,75,481z"/>
</g>
</svg>
