<svg enable-background="new 0 0 100 100" height="512" viewBox="0 0 100 100" width="512" xmlns="http://www.w3.org/2000/svg"><path d="m93.2335739 43.0729637c-20.1595001 8.1970825-21.5711823-4.2911186-31.1620331-6.3657608-7.0480614-1.5246124-10.4420547 1.1186447-12.0721703 4.2087059-1.6301155-3.0900612-5.0241089-5.7333183-12.0721703-4.2087059-9.5908737 2.0746422-11.0025311 14.5628433-31.162035 6.3657608-1.1139922-.4529533-2.2036147.5814285-1.5860004 1.613266 4.6530213 7.7737694 17.1174221 23.896534 37.7634315 17.6401672 0 0 4.5874329-1.5763206 7.0567741-6.4041595 2.4693413 4.8278389 7.0567741 6.4041595 7.0567741 6.4041595 20.6460114 6.2563667 33.1104126-9.8663979 37.7634277-17.6401672.617615-1.0318375-.4720075-2.0662193-1.5859983-1.613266z" fill="#293b44"/><path d="m94.0705261 43.0080528c-5.163765 8.1029701-17.3941574 22.3702354-37.012764 16.4292336 0 0-4.5919914-1.5812492-7.0577278-6.4055252-2.4657402 4.824276-7.0576782 6.4055252-7.0576782 6.4055252-19.6186638 5.9410019-31.8490486-8.3262634-37.0128174-16.4292336-.7325244.1518593-1.2060423.9112129-.7504091 1.6795616 4.654479 7.7723694 17.1171532 23.897934 37.7632256 17.6353302 0 0 4.591938-1.572361 7.0576782-6.3966408 2.4657364 4.8242798 7.0577278 6.3966408 7.0577278 6.3966408 20.646019 6.2626038 33.108696-9.8629608 37.763176-17.6353302.4556284-.7683487-.017829-1.5277023-.7504111-1.6795616z" fill="#19282f"/><g fill="#ededed"><path d="m44.1613731 38.3155136c-1.1503677-.7022095-2.5138321-1.049057-3.986351-.4544334-4.2070808 1.699028-9.0614586 9.6278343-16.5857277 9.2232971 0 0 14.4106178 5.5204849 22.0399628.5663757.8271866-.5371513 1.3975449-1.3918152 1.5568199-2.3651886.4442902-2.7152595-.6762504-5.5365181-3.024704-6.9700508z" opacity=".05"/><path d="m55.9637299 38.3155136c1.1503716-.7022095 2.5138359-1.049057 3.9863548-.4544334 4.2070808 1.699028 9.0614586 9.6278343 16.5857277 9.2232971 0 0-14.4106216 5.5204849-22.0399666.5663757-.8271828-.5371513-1.397541-1.3918152-1.5568161-2.3651886-.4442902-2.7152595.6762505-5.5365181 3.0247002-6.9700508z" opacity=".05"/></g></svg>