<?xml version="1.0" encoding="utf-8"?>
<!-- Generator: Adobe Illustrator 24.0.0, SVG Export Plug-In . SVG Version: 6.00 Build 0)  -->
<svg version="1.1" id="Capa_1" xmlns="http://www.w3.org/2000/svg" xmlns:xlink="http://www.w3.org/1999/xlink" x="0px" y="0px"
	 viewBox="0 0 512 512" style="enable-background:new 0 0 512 512;" xml:space="preserve">
<style type="text/css">
	.st0{fill:#19282F;}
	.st1{fill:#293B44;}
</style>
<g>
	<path class="st0" d="M497,30H298.2C292,12.6,275.5,0,256,0H76C51.2,0,31,20.2,31,45v151c0,24.8,20.2,45,45,45s45-20.2,45-45v-91
		c0-8.3,6.7-15,15-15s15,6.7,15,15v31c0,24.8,20.2,45,45,45s45-20.2,45-45v-31c0-8.3,6.7-15,15-15c19.5,0,36-12.6,42.2-30H497
		c8.3,0,15-6.7,15-15S505.3,30,497,30z"/>
	<path class="st1" d="M446.6,266.6c5.9-5.9,5.9-15.4,0-21.2s-15.4-5.9-21.2,0c-21.9,21.9-34.4,52.1-34.4,83v26.4
		c-9.2,16-15,29.3-15,36.2c0,16.5,13.5,30,30,30s30-13.5,30-30c0-6.8-5.8-20.2-15-36.2v-26.4C421,305.4,430.3,282.9,446.6,266.6
		L446.6,266.6z"/>
	<path class="st1" d="M296.6,266.6c5.9-5.9,5.9-15.4,0-21.2s-15.4-5.9-21.2,0c-21.9,21.9-34.4,52.1-34.4,83v26.4
		c-9.2,16-15,29.3-15,36.2c0,16.5,13.5,30,30,30s30-13.5,30-30c0-6.8-5.8-20.2-15-36.2v-26.4C271,305.4,280.3,282.9,296.6,266.6
		L296.6,266.6z"/>
	<path class="st1" d="M146.6,266.6c5.9-5.9,5.9-15.4,0-21.2s-15.4-5.9-21.2,0c-21.9,21.9-34.4,52.1-34.4,83v26.4
		c-9.2,16-15,29.3-15,36.2c0,16.5,13.5,30,30,30s30-13.5,30-30c0-6.8-5.8-20.2-15-36.2v-26.4C121,305.4,130.3,282.9,146.6,266.6
		L146.6,266.6z"/>
	<path class="st0" d="M497,361h-31c-2.6,0-5.2,0.3-7.7,0.8c4.9,11.4,7.7,21.4,7.7,29.2c0,33.1-26.9,60-60,60s-60-26.9-60-60
		c0-7.9,2.8-17.8,7.7-29.2c-2.5-0.4-5.1-0.8-7.7-0.8h-30c-2.6,0-5.2,0.3-7.7,0.8c4.9,11.4,7.7,21.4,7.7,29.2c0,33.1-26.9,60-60,60
		s-60-26.9-60-60c0-7.9,2.8-17.8,7.7-29.2c-2.5-0.4-5.1-0.8-7.7-0.8h-30c-2.6,0-5.2,0.3-7.7,0.8c4.9,11.4,7.7,21.4,7.7,29.2
		c0,33.1-26.9,60-60,60s-60-26.9-60-60c0-7.9,2.8-17.8,7.7-29.2c-2.5-0.4-5.1-0.8-7.7-0.8H15c-8.3,0-15,6.7-15,15v121
		c0,8.3,6.7,15,15,15h482c8.3,0,15-6.7,15-15V376C512,367.7,505.3,361,497,361z"/>
</g>
</svg>
